<?xml version="1.0" encoding="UTF-8" standalone="no"?>
<!-- Created with Inkscape (http://www.inkscape.org/) -->

<svg
   version="1.1"
   id="svg9"
   width="301"
   height="301"
   viewBox="0 0 301 301"
   sodipodi:docname="sonic.svg"
   inkscape:version="1.2.1 (9c6d41e410, 2022-07-14)"
   xmlns:inkscape="http://www.inkscape.org/namespaces/inkscape"
   xmlns:sodipodi="http://sodipodi.sourceforge.net/DTD/sodipodi-0.dtd"
   xmlns="http://www.w3.org/2000/svg"
   xmlns:svg="http://www.w3.org/2000/svg">
  <defs
     id="defs13" />
  <sodipodi:namedview
     id="namedview11"
     pagecolor="#ffffff"
     bordercolor="#000000"
     borderopacity="0.25"
     inkscape:showpageshadow="2"
     inkscape:pageopacity="0.0"
     inkscape:pagecheckerboard="0"
     inkscape:deskcolor="#d1d1d1"
     showgrid="false"
     inkscape:zoom="1.9122423"
     inkscape:cx="77.918998"
     inkscape:cy="178.32469"
     inkscape:window-width="1920"
     inkscape:window-height="1017"
     inkscape:window-x="-8"
     inkscape:window-y="-8"
     inkscape:window-maximized="1"
     inkscape:current-layer="g15" />
  <g
     inkscape:groupmode="layer"
     inkscape:label="Image"
     id="g15">
    <path
       style="fill:#243eae;stroke:#000000;stroke-width:2.3;stroke-dasharray:none;stroke-opacity:1;fill-opacity:1"
       d="m 21.298846,193.78525 c -4.67948,-2.51998 -13.8632002,-13.67047 -12.031272,-22.75891 0.08178,-0.40572 -0.145497,-0.82396 0.1127751,-1.23222 -0.147206,4.11369 -1.4886151,-11.60732 9.6418219,-15.39423 l 5.164095,-0.13074 C 33.903331,133.25661 41.63783,110.27402 55.955253,95.176225 87.031852,61.442744 124.9705,51.605454 140.67255,50.72579 c 35.72419,-2.001349 81.685,1.182899 102.75895,21.702272 l 9.93598,9.674506 c -10.03436,0.153339 -20.94075,0.997941 -22.48669,1.045893 -7.79147,0.241676 -48.94861,15.010534 -42.22792,14.511759 10.7758,-0.799723 48.2095,22.26896 57.13189,29.41573 22.24862,17.82099 37.1612,29.70504 44.18896,48.11106 l 5.49094,14.38102 c -8.12626,-6.05231 -16.55,-11.84344 -30.06942,-16.73428 -15.81411,-5.72098 -32.30746,-9.52646 -51.51021,-5.75241 12.98049,17.11286 23.7967,34.53708 27.19321,53.07905 1.88426,10.28643 3.21822,20.67325 -0.26147,29.54646 l -2.61473,6.66757 c -0.72504,-0.34571 -8.68328,-17.09363 -14.50519,-20.91785 -7.91133,-5.19668 -8.66245,-9.52869 -32.4306,-13.09745 -1.95086,-0.29292 -23.1031,-0.9952 -40.92055,6.53683 2.55696,-4.4436 4.84425,-8.91629 5.46057,-11.74771 -0.55289,-0.98484 2.54082,-5.17469 -3.36608,-11.10604 -5.00463,-5.02534 -13.89443,-3.76446 -20.48869,-4.38296 0.56518,-3.36316 3.10254,-12.2298 -0.36978,-21.19791 -0.4046,0.69675 -0.11274,-6.26858 -12.08849,-13.37999 -6.29202,-1.97366 -12.29618,-0.54904 -18.10238,4.04354 -4.972495,3.16885 -11.656574,12.20408 -18.028499,24.56534 -6.890764,9.7883 -12.130361,20.115 -20.929068,19.69829 -2.992589,-0.30046 -3.635824,-0.0565 -8.569815,-3.07232 -0.567547,0.25083 0.976182,-0.0262 -1.830312,0.78442 -5.838759,-6.69418 -11.56409,-11.00637 -17.518701,-20.13343 l -9.674506,-12.28924 c -1.006052,1.51469 1.877817,-4.26423 -3.018157,4.54406 -1.738462,3.12765 0.06215,8.87834 -0.522946,8.56325 z"
       id="path177"
       sodipodi:nodetypes="ssccccsscsssscscsscssccsccccccccccss" />
    <path
       style="fill:#f5d085;stroke:#000000;stroke-width:1;stroke-dasharray:none;stroke-opacity:1;fill-opacity:1"
       d="m 108.38062,129.29847 c 2.76135,-3.5465 25.74685,-24.87396 27.45468,-25.23216 -1.01852,4.56462 -1.96692,20.1016 -1.83031,29.80794 -6.4994,-1.97977 -15.64771,-3.87707 -25.62437,-4.57578 z"
       id="path1060"
       sodipodi:nodetypes="cccc" />
    <path
       style="fill:#ffffff;stroke:#000000;stroke-width:1.1;stroke-dasharray:none;stroke-opacity:1;fill-opacity:1"
       d="m 25.052518,180.82187 c -6.359202,11.87695 -2.861513,19.28788 4.714681,28.65786 3.038077,3.75739 6.166895,8.29003 7.580467,8.13514 8.261971,0.57921 14.225632,2.62291 16.085381,3.69778 1.751268,-0.97224 8.568341,-1.72714 9.494729,-1.68451 7.616563,0.35045 14.279368,3.72422 15.521421,4.0022 9.961957,4.40309 19.956533,0.96648 22.407993,0.22455 12.39066,-5.55064 21.63103,-14.07655 30.96898,-22.5103 3.54562,-11.01644 1.4771,-21.02736 -6.65602,-29.95208 -4.3794,-4.06204 -9.52531,-6.97432 -19.41339,-2.77335 -7.782535,4.88561 -14.018078,12.051 -18.488947,21.81696 -5.951473,11.24864 -12.425471,19.79706 -17.749385,23.29607 -2.803126,1.23909 -8.121766,5.30711 -15.719451,-1.04589 -1.66753,1.18336 -1.957406,1.10648 -4.013414,-1.37274 l -6.108718,-6.07508 C 36.816029,198.52438 30.86779,190.14983 25.052518,180.82187 Z"
       id="path1062"
       sodipodi:nodetypes="csccsccccccccccc" />
    <path
       style="fill:#f5d085;stroke:#000000;stroke-width:1.6;stroke-dasharray:none;stroke-opacity:1;fill-opacity:1"
       d="m 54.321047,221.85996 c 5.420173,-2.27945 9.795342,-1.43783 13.400498,-1.04589 6.527209,1.46338 11.810625,4.22777 14.11955,4.83726 6.173053,1.81242 12.442625,1.1769 17.257228,-0.65369 8.605917,-2.72022 15.925007,-8.92687 24.093827,-14.76666 l 8.32884,-7.45855 c 9.79077,-0.26614 19.6679,0.20503 22.18036,6.01388 4.45452,5.49946 0.2626,12.97564 -5.05387,20.91785 -6.18663,8.16549 -14.65248,14.41644 -26.99246,17.41311 -13.01622,2.29759 -24.869499,5.21411 -47.65812,0.62854 -5.111103,-1.01489 -16.509096,-4.76842 -24.970685,-13.85808 4.528335,-1.09133 9.328915,-1.83263 11.504819,-5.94852 0.03393,-0.79376 2.028904,-1.99894 -6.209987,-6.07925 z"
       id="path1118"
       sodipodi:nodetypes="ccccccccccccc" />
    <path
       style="fill:#000000;stroke:none;stroke-width:0.9;stroke-dasharray:none;stroke-opacity:1;fill-opacity:1"
       d="m 21.816953,218.90909 c 5.870383,-3.45007 27.969321,0.79972 27.271192,1.29423 8.373852,2.24171 12.53372,5.90939 10.723587,8.04269 -2.710709,3.19465 -7.682056,5.31452 -13.12715,5.82401 -6.891686,0.64485 -16.549021,-0.1622 -21.447174,-2.12622 -2.175515,-0.87232 -6.966475,-1.74766 -7.626689,-7.30314 -0.181937,-1.53094 0.11604,-3.32773 4.206234,-5.73157 z"
       id="path1714"
       sodipodi:nodetypes="scsssss" />
    <path
       style="fill:#ffffff;stroke:#000000;stroke-width:0.9;stroke-dasharray:none;stroke-opacity:1;fill-opacity:1"
       d="m 30.788463,219.89892 c 0.965285,-0.63303 9.51061,-0.5129 10.066716,-0.26148 5.742453,2.59625 2.28465,3.99052 1.961048,4.1182 -2.362782,0.93224 -4.753423,2.72106 -11.962396,0.65369 -3.906171,-1.1202 -1.699774,-3.91263 -0.06537,-4.51041 z"
       id="path1716"
       sodipodi:nodetypes="cssscc" />
    <path
       style="fill:#243eae;stroke:#000000;stroke-width:2.2;stroke-dasharray:none;stroke-opacity:1;fill-opacity:1"
       d="M 27.918305,142.91953 17.194718,89.024263 c 13.887248,4.513316 23.618185,13.082607 28.472972,18.396497 z"
       id="path3906"
       sodipodi:nodetypes="cccc" />
    <ellipse
       style="fill:#568f29;stroke:#000000;stroke-width:0.48337678;stroke-dasharray:none;stroke-opacity:1;fill-opacity:1"
       id="path3962"
       cx="82.138908"
       cy="208.92393"
       rx="5.8881378"
       ry="15.94212"
       transform="matrix(0.99737047,-0.07247165,0.12801718,0.99177195,0,0)" />
    <ellipse
       style="fill:#000000;stroke:#000000;stroke-width:0.571083;stroke-dasharray:none;stroke-opacity:1;fill-opacity:1"
       id="path3962-6"
       cx="68.187668"
       cy="215.88678"
       rx="3.3723514"
       ry="9.3891659"
       transform="matrix(0.98988307,-0.14188554,0.19134849,0.98152216,0,0)" />
    <ellipse
       style="fill:#568f29;fill-opacity:1;stroke:#000000;stroke-width:0.283103;stroke-dasharray:none;stroke-opacity:1"
       id="path3962-1"
       cx="-8.6353455"
       cy="209.50323"
       rx="3.753109"
       ry="8.5793076"
       transform="matrix(0.99253315,-0.12197521,0.24168494,0.97035477,0,0)" />
    <ellipse
       style="fill:#000000;fill-opacity:1;stroke:#000000;stroke-width:0.334878;stroke-dasharray:none;stroke-opacity:1"
       id="path3962-6-5"
       cx="-24.449341"
       cy="211.11606"
       rx="2.1409786"
       ry="5.0853419"
       transform="matrix(0.98364396,-0.18012373,0.31379977,0.94948918,0,0)" />
  </g>
</svg>
