<?xml version="1.0" encoding="UTF-8" standalone="no"?>
<!-- Created with Inkscape (http://www.inkscape.org/) -->

<svg
   version="1.1"
   id="svg9"
   width="900"
   height="550.66669"
   viewBox="0 0 900 550.66669"
   sodipodi:docname="olho-mangá-pronto.svg"
   inkscape:version="1.2.1 (9c6d41e410, 2022-07-14)"
   xmlns:inkscape="http://www.inkscape.org/namespaces/inkscape"
   xmlns:sodipodi="http://sodipodi.sourceforge.net/DTD/sodipodi-0.dtd"
   xmlns="http://www.w3.org/2000/svg"
   xmlns:svg="http://www.w3.org/2000/svg">
  <defs
     id="defs13" />
  <sodipodi:namedview
     id="namedview11"
     pagecolor="#ffffff"
     bordercolor="#000000"
     borderopacity="0.25"
     inkscape:showpageshadow="2"
     inkscape:pageopacity="0.0"
     inkscape:pagecheckerboard="0"
     inkscape:deskcolor="#d1d1d1"
     showgrid="false"
     inkscape:zoom="1.4782082"
     inkscape:cx="408.6028"
     inkscape:cy="295.62818"
     inkscape:window-width="1920"
     inkscape:window-height="1017"
     inkscape:window-x="-8"
     inkscape:window-y="-8"
     inkscape:window-maximized="1"
     inkscape:current-layer="g15" />
  <g
     inkscape:groupmode="layer"
     inkscape:label="Image"
     id="g15">
    <path
       style="fill:#000000;stroke:none;stroke-width:2;stroke-dasharray:none;stroke-opacity:1;fill-opacity:1"
       d="m 57.869314,172.47713 c 3.647173,-6.1957 121.124376,-38.01586 228.626196,-51.04633 107.50182,-13.03047 249.10216,-14.58127 372.71909,8.79443 123.61693,23.3757 126.11126,27.79986 181.01058,42.69948 2.10624,0.57163 2.33865,4.01557 -2.00888,3.33173 -26.62415,-4.18782 -51.52505,-8.32341 -79.06851,-12.79948 l -81.55936,-9.54656 -0.23918,9.92584 c -0.91207,37.85027 -6.87024,53.34466 -7.86236,58.99641 -5.65177,32.19612 -17.8472,59.21064 -32.91731,83.61287 -21.53405,34.86894 -39.91929,50.40779 -79.28718,73.60673 -20.45238,12.05229 -75.70915,20.06677 -115.76167,2.63094 -29.79678,-12.97126 -64.46091,-37.3671 -88.49548,-79.40676 -20.58797,-36.0111 -41.12304,-88.40304 -38.80471,-141.69889 l 0.53639,-12.33109 v -2.39177 c -61.73648,8.1762 -124.17115,13.55965 -182.25287,36.35489 l -30.13631,12.43721 c 18.7053,34.22064 48.63879,67.86433 69.38895,91.7619 29.33473,37.47393 66.90678,66.80932 103.29684,99.5797 0.31978,2.233 0.32199,4.219 -3.34847,3.34848 C 234.79218,364.42574 196.73867,341.93645 162.162,309.01668 124.52868,271.95598 81.629089,234.92561 57.869314,172.47713 Z"
       id="path177"
       sodipodi:nodetypes="czzssccsssssssccccccccc" />
    <path
       style="fill:#bea387;stroke:none;stroke-width:2;stroke-dasharray:none;stroke-opacity:1;fill-opacity:1"
       d="m 332.1589,145.44636 c -0.65431,74.02086 17.34619,136.24567 63.92875,184.68305 68.14091,70.85414 149.10008,47.79544 191.78625,7.1032 59.7431,-56.95242 70.5318,-136.55713 70.35544,-182.99182 -54.34507,-9.21964 -108.69015,-8.95297 -163.03522,-11.50041 -51.63486,-1.46944 -106.30215,-0.28551 -163.03522,2.70598 z"
       id="path2566"
       sodipodi:nodetypes="cssccc" />
    <path
       style="fill:#482705;stroke:none;stroke-width:2;stroke-dasharray:none;stroke-opacity:1;fill-opacity:1"
       d="m 332.45602,145.41962 c -1.02814,20.65851 1.59265,36.75586 2.87013,54.53235 l 69.36133,-6.69696 c 18.45625,33.63497 49.09575,83.62854 82.75524,88.01714 46.596,8.91403 77.92364,-49.4737 82.27688,-90.40891 l 85.62537,9.08873 c 1.94778,-9.52222 2.36916,-27.98238 3.34848,-45.44363 -104.2588,-16.77045 -215.448,-16.50547 -326.23743,-9.08872 z"
       id="path2568"
       sodipodi:nodetypes="cccccccc" />
    <ellipse
       style="fill:#fbfbfb;stroke:none;stroke-width:2.0845;stroke-dasharray:none;stroke-opacity:1;fill-opacity:1"
       id="path2676"
       cx="413.64148"
       cy="210.74089"
       rx="32.785919"
       ry="33.26416" />
    <ellipse
       style="fill:#fdfcfc;stroke:none;stroke-width:1.33083;stroke-dasharray:none;stroke-opacity:1;fill-opacity:1"
       id="path2676-4"
       cx="574.26398"
       cy="280.79376"
       rx="20.964729"
       ry="21.203793" />
    <path
       style="fill:#040404;fill-opacity:1;stroke:none;stroke-width:2;stroke-dasharray:none;stroke-opacity:1"
       d="m 425.47887,241.76193 c 14.87699,25.56371 40.88426,45.76024 50.96171,48.59894 25.4784,7.14633 40.61947,-0.30121 55.48906,-8.13202 15.51398,-11.15139 28.81149,-28.39806 39.22503,-53.57564 4.57636,-11.39671 8.10055,-22.27317 9.32791,-34.91984 0.37721,-3.88673 -8.72644,-7.19384 -11.59657,-2.1526 -2.41368,15.84352 -6.07034,29.8496 -12.65939,43.67032 -6.55174,11.67126 -13.73599,23.9081 -24.05781,32.62714 -2.31101,2.49571 -8.52027,6.3637 -19.12214,11.41044 -10.35013,3.98286 -18.65614,3.25197 -30.2594,0.58945 -2.40954,-0.5529 -16.59088,-5.3446 -28.94042,-17.74013 -6.78244,-6.80769 -13.54462,-15.52558 -21.13462,-24.10383 z"
       id="path2702"
       sodipodi:nodetypes="ccccsccccsscc" />
  </g>
</svg>
